<svg width="20" height="20" viewBox="0 0 20 20" fill="none" xmlns="http://www.w3.org/2000/svg">
<g clip-path="url(#clip0_273_24386)">
<path d="M15 16.875L15 3.125C15 2.43464 14.4404 1.875 13.75 1.875L6.25 1.875C5.55964 1.875 5 2.43464 5 3.125L5 16.875C5 17.5654 5.55964 18.125 6.25 18.125H13.75C14.4404 18.125 15 17.5654 15 16.875Z" stroke="#2250FC" stroke-width="1.5" stroke-linecap="round" stroke-linejoin="round"/>
<path d="M10 5.46875C10.4315 5.46875 10.7812 5.11897 10.7812 4.6875C10.7812 4.25603 10.4315 3.90625 10 3.90625C9.56853 3.90625 9.21875 4.25603 9.21875 4.6875C9.21875 5.11897 9.56853 5.46875 10 5.46875Z" fill="#2250FC"/>
</g>
<defs>
<clipPath id="clip0_273_24386">
<rect width="20" height="20" fill="white"/>
</clipPath>
</defs>
</svg>
