<svg width="20" height="20" viewBox="0 0 20 20" fill="none" xmlns="http://www.w3.org/2000/svg">
<path d="M4.375 7.5C3.75693 7.5 3.15275 7.31672 2.63884 6.97334C2.12494 6.62996 1.7244 6.14191 1.48788 5.57089C1.25135 4.99987 1.18947 4.37154 1.31005 3.76534C1.43063 3.15915 1.72825 2.60233 2.16529 2.16529C2.60233 1.72825 3.15915 1.43063 3.76534 1.31005C4.37154 1.18947 4.99987 1.25135 5.57089 1.48788C6.14191 1.7244 6.62996 2.12494 6.97334 2.63884C7.31672 3.15275 7.5 3.75693 7.5 4.375H6.25C6.25 4.00416 6.14003 3.64165 5.93401 3.33331C5.72798 3.02496 5.43514 2.78464 5.09253 2.64273C4.74992 2.50081 4.37292 2.46368 4.00921 2.53603C3.64549 2.60838 3.3114 2.78695 3.04918 3.04918C2.78695 3.3114 2.60838 3.64549 2.53603 4.00921C2.46368 4.37292 2.50081 4.74992 2.64273 5.09253C2.78464 5.43514 3.02496 5.72798 3.33331 5.93401C3.64165 6.14003 4.00416 6.25 4.375 6.25V7.5Z" fill="#2250FC"/>
<path d="M15.625 7.5V6.25C15.9958 6.25 16.3584 6.14003 16.6667 5.93401C16.975 5.72798 17.2154 5.43514 17.3573 5.09253C17.4992 4.74992 17.5363 4.37292 17.464 4.00921C17.3916 3.64549 17.213 3.3114 16.9508 3.04918C16.6886 2.78695 16.3545 2.60838 15.9908 2.53603C15.6271 2.46368 15.2501 2.50081 14.9075 2.64273C14.5649 2.78464 14.272 3.02496 14.066 3.33331C13.86 3.64165 13.75 4.00416 13.75 4.375H12.5C12.5 3.75693 12.6833 3.15275 13.0267 2.63884C13.37 2.12494 13.8581 1.7244 14.4291 1.48788C15.0001 1.25135 15.6285 1.18947 16.2347 1.31005C16.8408 1.43063 17.3977 1.72825 17.8347 2.16529C18.2717 2.60233 18.5694 3.15915 18.69 3.76534C18.8105 4.37154 18.7486 4.99987 18.5121 5.57089C18.2756 6.14191 17.8751 6.62996 17.3612 6.97334C16.8473 7.31672 16.2431 7.5 15.625 7.5Z" fill="#2250FC"/>
<path d="M4.375 18.75C3.5462 18.75 2.75134 18.4208 2.16529 17.8347C1.57924 17.2487 1.25 16.4538 1.25 15.625C1.25 14.7962 1.57924 14.0013 2.16529 13.4153C2.75134 12.8292 3.5462 12.5 4.375 12.5V13.75C4.00416 13.75 3.64165 13.86 3.33331 14.066C3.02496 14.272 2.78464 14.5649 2.64273 14.9075C2.50081 15.2501 2.46368 15.6271 2.53603 15.9908C2.60838 16.3545 2.78695 16.6886 3.04918 16.9508C3.3114 17.213 3.64549 17.3916 4.00921 17.464C4.37292 17.5363 4.74992 17.4992 5.09253 17.3573C5.43514 17.2154 5.72798 16.975 5.93401 16.6667C6.14003 16.3584 6.25 15.9958 6.25 15.625H7.5C7.49909 16.4535 7.16956 17.2479 6.5837 17.8337C5.99785 18.4196 5.20352 18.7491 4.375 18.75Z" fill="#2250FC"/>
<path d="M15.625 18.75C14.7965 18.7491 14.0022 18.4196 13.4163 17.8337C12.8304 17.2479 12.5009 16.4535 12.5 15.625H13.75C13.75 15.9958 13.86 16.3584 14.066 16.6667C14.272 16.975 14.5649 17.2154 14.9075 17.3573C15.2501 17.4992 15.6271 17.5363 15.9908 17.464C16.3545 17.3916 16.6886 17.213 16.9508 16.9508C17.213 16.6886 17.3916 16.3545 17.464 15.9908C17.5363 15.6271 17.4992 15.2501 17.3573 14.9075C17.2154 14.5649 16.975 14.272 16.6667 14.066C16.3584 13.86 15.9958 13.75 15.625 13.75V12.5C16.4538 12.5 17.2487 12.8292 17.8347 13.4153C18.4208 14.0013 18.75 14.7962 18.75 15.625C18.75 16.4538 18.4208 17.2487 17.8347 17.8347C17.2487 18.4208 16.4538 18.75 15.625 18.75Z" fill="#2250FC"/>
<path d="M12.5 11.6162V8.38381L16.0669 4.81688C16.1266 4.75922 16.1742 4.69026 16.2069 4.614C16.2397 4.53775 16.2569 4.45574 16.2577 4.37275C16.2584 4.28976 16.2426 4.20746 16.2111 4.13065C16.1797 4.05384 16.1333 3.98406 16.0746 3.92538C16.0159 3.8667 15.9462 3.82029 15.8693 3.78886C15.7925 3.75744 15.7102 3.74162 15.6272 3.74234C15.5443 3.74307 15.4622 3.76031 15.386 3.79306C15.3097 3.82582 15.2408 3.87343 15.1831 3.93313L12.3709 6.74563C12.2136 6.23987 11.8986 5.79769 11.472 5.48368C11.0455 5.16967 10.5297 5.0003 10 5.0003C9.47033 5.0003 8.95453 5.16967 8.52797 5.48368C8.10141 5.79769 7.78643 6.23987 7.62906 6.74563L4.81688 3.93313C4.75887 3.87506 4.68998 3.829 4.61416 3.79758C4.53834 3.76615 4.45707 3.74998 4.375 3.74998C4.29293 3.74998 4.21166 3.76615 4.13584 3.79758C4.06002 3.829 3.99113 3.87506 3.93313 3.93313C3.87506 3.99113 3.829 4.06002 3.79758 4.13584C3.76615 4.21166 3.74998 4.29293 3.74998 4.375C3.74998 4.45707 3.76615 4.53834 3.79758 4.61416C3.829 4.68998 3.87506 4.75887 3.93313 4.81688L7.5 8.38381V11.6162L3.93313 15.1831C3.87506 15.2411 3.829 15.31 3.79758 15.3858C3.76615 15.4617 3.74998 15.5429 3.74998 15.625C3.74998 15.7071 3.76615 15.7883 3.79758 15.8642C3.829 15.94 3.87506 16.0089 3.93313 16.0669C3.99113 16.1249 4.06002 16.171 4.13584 16.2024C4.21166 16.2338 4.29293 16.25 4.375 16.25C4.45707 16.25 4.53834 16.2338 4.61416 16.2024C4.68998 16.171 4.75887 16.1249 4.81688 16.0669L7.62937 13.2544C7.78675 13.7601 8.10172 14.2023 8.52828 14.5163C8.95484 14.8303 9.47064 14.9997 10.0003 14.9997C10.53 14.9997 11.0458 14.8303 11.4723 14.5163C11.8989 14.2023 12.2139 13.7601 12.3713 13.2544L15.1834 16.0669C15.3013 16.1807 15.4592 16.2437 15.6231 16.2423C15.7869 16.2409 15.9437 16.1751 16.0596 16.0593C16.1755 15.9434 16.2412 15.7866 16.2426 15.6228C16.244 15.4589 16.181 15.301 16.0672 15.1831L12.5 11.6162ZM11.25 12.5C11.25 12.8315 11.1183 13.1495 10.8839 13.3839C10.6495 13.6183 10.3315 13.75 10 13.75C9.66848 13.75 9.35054 13.6183 9.11612 13.3839C8.8817 13.1495 8.75 12.8315 8.75 12.5V7.5C8.75 7.16848 8.8817 6.85054 9.11612 6.61612C9.35054 6.3817 9.66848 6.25 10 6.25C10.3315 6.25 10.6495 6.3817 10.8839 6.61612C11.1183 6.85054 11.25 7.16848 11.25 7.5V12.5Z" fill="#2250FC"/>
</svg>
