<svg width="44" height="30" viewBox="0 0 44 30" fill="none" xmlns="http://www.w3.org/2000/svg">
<g clip-path="url(#clip0_416_767)">
<path d="M21.988 17.6325C21.262 19.204 20.6245 20.7695 20.489 22.5145C20.4525 23.0055 20.5205 23.5255 20.6405 24.0045C20.8705 24.889 21.565 25.2815 22.3795 25.068C22.9595 24.912 23.4295 24.5365 23.8365 24.086C25.623 22.11 27.08 19.891 27.8425 17.1935C28.1665 16.0495 28.417 14.8825 28.678 13.715C28.788 13.224 28.8085 12.7215 28.61 12.23C28.5635 12.109 28.595 11.8895 28.673 11.7855C29.0125 11.329 29.451 11.0405 30.01 11.1385C30.5165 11.231 30.788 11.6295 30.94 12.138C31.19 12.97 31.1485 13.819 30.955 14.6395C30.7305 15.5985 30.438 16.5405 30.12 17.4645C29.707 18.678 29.305 19.8915 29.3885 21.2145C29.4145 21.6535 29.493 22.0985 29.6335 22.5085C29.843 23.1095 30.224 23.202 30.6835 22.809C31.2636 22.3136 31.7091 21.6797 31.9785 20.966C32.4485 19.7355 32.8985 18.499 33.295 17.2395C33.854 15.46 34.355 13.663 34.867 11.8665C34.987 11.4445 35.055 11.017 34.883 10.5665C34.8314 10.4344 34.83 10.2881 34.879 10.155C34.9281 10.022 35.0241 9.91154 35.149 9.8445C35.5565 9.6365 35.9845 9.4345 36.4235 9.359C36.9925 9.2605 37.3635 9.596 37.52 10.22C37.6925 10.8955 37.635 11.589 37.4625 12.242C37.1235 13.507 36.742 14.755 36.345 15.997C35.9375 17.2685 35.4885 18.5335 35.4835 19.9085C35.4835 20.521 35.541 21.1625 35.6925 21.7515C35.969 22.8435 36.831 23.0865 37.52 22.243C37.964 21.6995 38.3245 21.058 38.622 20.4C40.523 16.194 41.0195 11.705 40.7165 7.071C40.685 6.557 40.565 6.0485 40.4715 5.54C40.3405 4.8465 40.7215 4.1475 41.3905 3.876C42.017 3.622 42.722 3.8585 42.9885 4.477C43.1505 4.8585 43.2545 5.286 43.312 5.702C43.688 8.5155 43.469 11.2945 42.8685 14.0445C42.367 16.344 41.7195 18.597 40.56 20.602C40.053 21.486 39.442 22.3065 38.81 23.0865C38.1885 23.849 37.3845 24.334 36.46 24.5305C35.431 24.7505 34.5225 24.259 34.063 23.2135C33.7335 22.4685 33.6345 21.6595 33.577 20.8445C33.567 20.677 33.556 20.504 33.478 20.313C33.4255 20.458 33.3785 20.602 33.3265 20.7465C32.9295 21.8555 32.475 22.9245 31.749 23.826C31.2895 24.386 30.757 24.814 30.062 24.964C28.8975 25.2125 27.9 24.646 27.472 23.4215C27.2835 22.8785 27.2055 22.289 27.0645 21.671C26.965 21.827 26.866 21.977 26.7665 22.1275C25.978 23.3525 25.153 24.5365 24.0765 25.4725C23.4295 26.0325 22.74 26.5125 21.9305 26.749C20.6715 27.119 19.601 26.6395 18.943 25.3975C18.7495 25.0335 18.614 24.629 18.431 24.1955L17.909 25.062C17.413 25.877 16.859 26.645 16.1385 27.229C15.595 27.668 14.9945 27.9685 14.305 27.864C13.36 27.72 12.749 27.119 12.4875 26.102C12.216 25.045 12.2945 23.982 12.4615 22.9245C12.8325 20.498 13.6 18.1985 14.488 15.957C15.073 14.478 15.731 13.0335 16.358 11.5775C16.415 11.4445 16.488 11.3235 16.556 11.1905C17.465 11.0575 18.301 11.1845 19.0995 11.7045C18.656 12.6635 18.217 13.588 17.794 14.5295C16.624 17.1355 15.6055 19.8105 14.796 22.578C14.5405 23.456 14.373 24.3575 14.4935 25.293C14.5925 26.0905 15.1515 26.3795 15.7365 25.888C16.0705 25.611 16.363 25.2415 16.6135 24.866C17.4335 23.6525 17.8305 22.237 18.1335 20.781C18.4935 19.048 18.87 17.3205 19.596 15.714C20.431 13.871 21.471 12.19 22.7975 10.734C24.0615 9.353 25.7535 9.099 27.2995 10.064C27.994 10.497 28.187 11.248 28.1715 12.0395C28.135 14.1485 27.4665 16.003 26.2285 17.6095C26.124 17.742 25.9985 17.8575 25.8735 17.973C24.8605 18.921 23.7115 18.996 22.6145 18.1755C22.4055 18.008 22.223 17.8345 21.988 17.6325ZM25.7745 12.242L25.6335 12.1725C24.056 13.1665 23.3195 14.917 22.4315 16.5695C22.5465 16.6905 22.625 16.7945 22.719 16.8695C23.121 17.1875 23.842 17.1935 24.098 16.864C24.8655 15.864 25.435 14.755 25.6645 13.455C25.7375 13.0565 25.7375 12.6465 25.7745 12.242ZM12.8585 4.847C12.77 3.8125 12.697 2.7785 12.5925 1.75C12.5085 0.947001 12.7385 0.381001 13.2925 0.126501C13.7625 -0.0929992 14.222 -0.0409992 14.5405 0.392501C14.8514 0.806073 15.1029 1.26116 15.2875 1.7445C15.893 3.3565 15.9925 5.0665 15.8305 6.7765C15.1515 13.9985 12.6495 20.3595 8.3355 25.831C7.6515 26.6975 6.8945 27.506 6.1105 28.2745C4.9985 29.3725 3.6615 29.7135 2.2095 29.378C1.186 29.1415 0.4965 28.4595 0.2245 27.298C-0.0254999 26.247 -0.0414999 25.184 0.0370001 24.115C0.397 19.0885 1.536 14.276 3.317 9.642C3.651 8.7755 4.053 7.955 4.68 7.302C5.145 6.8115 5.6775 6.4995 6.351 6.661C6.8735 6.7825 7.218 7.123 7.2495 7.701C7.2755 8.2265 7.2235 8.764 7.1345 9.284C7.0565 9.729 6.915 10.174 6.748 10.5895C5.563 13.5885 4.7375 16.714 3.959 19.8625C3.484 21.781 3.04 23.7045 2.873 25.6925C2.857 25.854 2.8415 26.0155 2.8365 26.1775C2.8155 26.842 3.223 27.177 3.7765 26.911C4.069 26.7725 4.3665 26.5875 4.5805 26.3335C5.176 25.6345 5.787 24.9355 6.278 24.1495C8.811 20.0995 10.827 15.7665 12.0335 11.0055C12.5455 8.9955 12.801 6.944 12.8585 4.847Z" fill="black"/>
<path d="M30.5525 4.327C30.2605 4.4135 29.9575 4.477 29.67 4.587C28.735 4.9505 27.8055 5.332 26.876 5.702C26.7245 5.7595 26.5575 5.7885 26.4215 5.823C26.2595 5.546 26.333 5.378 26.484 5.251C26.688 5.0835 26.902 4.9275 27.1215 4.7945C28.803 3.7895 30.61 3.2115 32.48 2.8475C32.663 2.813 32.8455 2.7725 33.075 2.7325C33.117 2.3975 33.1535 2.062 33.195 1.727C33.796 1.571 34.052 1.762 34.266 2.547C34.5535 2.524 34.846 2.449 35.133 2.4835C35.41 2.5185 35.7025 2.6285 35.948 2.7785C36.157 2.9055 36.209 3.177 36.12 3.495C35.42 3.541 34.705 3.593 33.9895 3.645C33.6605 4.298 33.347 4.922 33.0335 5.546L33.0805 5.5805C33.352 5.2455 33.6185 4.8985 33.8955 4.5695C34.1615 4.2575 34.3235 4.263 34.6055 4.5635C34.9815 4.9565 35.0495 5.28 34.804 5.794C34.548 6.3315 34.2555 6.846 33.989 7.3775C33.847 7.66292 33.7434 7.96588 33.681 8.2785C34.266 7.8685 34.7675 7.3835 34.9555 6.6205C35.1385 5.8805 35.3835 5.176 35.859 4.61C36.0924 4.33425 36.3653 4.09465 36.669 3.899C37.139 3.593 37.593 3.8125 37.776 4.396C37.974 5.0375 37.739 5.7825 37.175 6.112C36.825 6.314 36.4285 6.418 35.974 6.603C35.833 6.9095 35.6395 7.2965 35.838 7.793C35.953 7.741 36.0525 7.7125 36.141 7.6545C37.384 6.892 38.3345 5.8175 38.951 4.3905C39.0085 4.2515 39.097 4.1245 39.165 4.003C39.4625 4.0495 39.562 4.2345 39.5305 4.483C39.5052 4.68497 39.4433 4.88065 39.348 5.0605C38.601 6.505 37.52 7.5275 36.1255 8.1455C35.441 8.446 35.159 8.319 34.8355 7.5855C34.543 7.9495 34.2555 8.3135 33.9525 8.6655C33.744 8.9085 33.5035 9.128 33.1745 8.949C32.856 8.7695 32.7465 8.4115 32.8245 8.0765C32.9605 7.493 33.159 6.9265 33.3625 6.372C33.4725 6.077 33.65 5.817 33.77 5.517C32.741 6.453 31.8585 7.5045 31.451 8.9605C31.0645 8.8105 30.976 8.504 30.9965 8.2265C31.028 7.718 31.054 7.175 31.2315 6.713C31.4875 6.037 31.8635 5.413 32.198 4.7715C32.3335 4.506 32.485 4.24 32.6835 3.8765C32.3965 3.9225 32.1925 3.9515 31.9055 3.9975C30.9605 5.91 29.999 7.851 29.033 9.8095C28.8555 9.6885 28.793 9.4515 28.8345 9.2205C28.9445 8.6135 29.0225 7.9895 29.2365 7.4235C29.545 6.5915 29.9575 5.8 30.328 4.997C30.417 4.8005 30.5265 4.6155 30.626 4.425C30.5945 4.385 30.5735 4.3555 30.5525 4.327ZM36.073 5.956C36.1045 5.985 36.136 6.014 36.167 6.037C36.8355 5.7885 37.1335 5.3205 36.977 4.6215C36.6475 5.1065 36.3605 5.534 36.073 5.956ZM19.351 5.806C20.171 5.656 20.9175 5.801 21.6385 5.997C21.842 6.251 21.8055 6.4535 21.628 6.65C20.7765 7.5915 20.0925 8.6605 19.544 9.8505C19.2465 10.492 18.5675 10.538 18.144 9.9895C17.774 9.504 17.711 8.9495 17.857 8.3545C18.108 7.3315 18.724 6.563 19.351 5.806Z" fill="black"/>
</g>
<defs>
<clipPath id="clip0_416_767">
<rect width="43.5" height="29.5" fill="white"/>
</clipPath>
</defs>
</svg>
